<mxfile host="65bd71144e" modified="2021-02-09T00:01:06.666Z" agent="5.0 (Windows NT 10.0; Win64; x64) AppleWebKit/537.36 (KHTML, like Gecko) Code/1.53.0 Chrome/87.0.4280.141 Electron/11.2.1 Safari/537.36" etag="HKjOv8--tBTMgY27qtOQ" version="14.2.4" type="embed" pages="4">
    <diagram id="C5RBs43oDa-KdzZeNtuy" name="Main Layout">
        <mxGraphModel dx="2433" dy="1150" grid="1" gridSize="10" guides="1" tooltips="1" connect="1" arrows="1" fold="1" page="1" pageScale="1" pageWidth="827" pageHeight="1169" math="0" shadow="0">
            <root>
                <mxCell id="WIyWlLk6GJQsqaUBKTNV-0"/>
                <mxCell id="WIyWlLk6GJQsqaUBKTNV-1" parent="WIyWlLk6GJQsqaUBKTNV-0"/>
                <mxCell id="qrIafX3nSjIkt2bbz3qd-0" value="Index:&lt;br style=&quot;font-size: 15px;&quot;&gt;Page includes Header,&lt;br style=&quot;font-size: 15px;&quot;&gt;Body which includes:" style="whiteSpace=wrap;html=1;aspect=fixed;fillColor=#d5e8d4;strokeColor=#82b366;fontColor=#0A0A0A;rounded=1;labelBackgroundColor=none;labelBorderColor=none;fontSize=15;" parent="WIyWlLk6GJQsqaUBKTNV-1" vertex="1">
                    <mxGeometry x="40" y="40" width="190" height="190" as="geometry"/>
                </mxCell>
                <mxCell id="qrIafX3nSjIkt2bbz3qd-2" value="Photography" style="whiteSpace=wrap;html=1;aspect=fixed;fillColor=#ffe6cc;strokeColor=#d79b00;fontColor=#1C1C1C;rounded=1;labelBackgroundColor=none;labelBorderColor=none;fontSize=15;" parent="WIyWlLk6GJQsqaUBKTNV-1" vertex="1">
                    <mxGeometry x="320" y="160" width="120" height="120" as="geometry"/>
                </mxCell>
                <mxCell id="qrIafX3nSjIkt2bbz3qd-3" value="" style="endArrow=classic;html=1;exitX=1;exitY=0.5;exitDx=0;exitDy=0;entryX=0;entryY=0.5;entryDx=0;entryDy=0;" parent="WIyWlLk6GJQsqaUBKTNV-1" source="qrIafX3nSjIkt2bbz3qd-0" target="qrIafX3nSjIkt2bbz3qd-2" edge="1">
                    <mxGeometry width="50" height="50" relative="1" as="geometry">
                        <mxPoint x="410" y="170" as="sourcePoint"/>
                        <mxPoint x="460" y="120" as="targetPoint"/>
                    </mxGeometry>
                </mxCell>
                <mxCell id="qrIafX3nSjIkt2bbz3qd-4" value="Coding" style="whiteSpace=wrap;html=1;aspect=fixed;fillColor=#ffe6cc;strokeColor=#d79b00;fontColor=#1C1C1C;rounded=1;labelBackgroundColor=none;labelBorderColor=none;fontSize=15;" parent="WIyWlLk6GJQsqaUBKTNV-1" vertex="1">
                    <mxGeometry x="320" y="320" width="120" height="120" as="geometry"/>
                </mxCell>
                <mxCell id="qrIafX3nSjIkt2bbz3qd-5" value="Video" style="whiteSpace=wrap;html=1;aspect=fixed;fillColor=#ffe6cc;strokeColor=#d79b00;fontColor=#1C1C1C;rounded=1;labelBackgroundColor=none;labelBorderColor=none;fontSize=15;" parent="WIyWlLk6GJQsqaUBKTNV-1" vertex="1">
                    <mxGeometry x="320" y="480" width="120" height="120" as="geometry"/>
                </mxCell>
                <mxCell id="qrIafX3nSjIkt2bbz3qd-6" value="" style="endArrow=classic;html=1;exitX=1;exitY=1;exitDx=0;exitDy=0;entryX=0;entryY=0.5;entryDx=0;entryDy=0;" parent="WIyWlLk6GJQsqaUBKTNV-1" source="qrIafX3nSjIkt2bbz3qd-0" target="qrIafX3nSjIkt2bbz3qd-4" edge="1">
                    <mxGeometry width="50" height="50" relative="1" as="geometry">
                        <mxPoint x="380" y="390" as="sourcePoint"/>
                        <mxPoint x="430" y="340" as="targetPoint"/>
                    </mxGeometry>
                </mxCell>
                <mxCell id="qrIafX3nSjIkt2bbz3qd-8" value="" style="endArrow=classic;html=1;exitX=0.5;exitY=1;exitDx=0;exitDy=0;entryX=0;entryY=0;entryDx=0;entryDy=0;" parent="WIyWlLk6GJQsqaUBKTNV-1" source="qrIafX3nSjIkt2bbz3qd-0" target="qrIafX3nSjIkt2bbz3qd-5" edge="1">
                    <mxGeometry width="50" height="50" relative="1" as="geometry">
                        <mxPoint x="420" y="580" as="sourcePoint"/>
                        <mxPoint x="470" y="530" as="targetPoint"/>
                    </mxGeometry>
                </mxCell>
                <mxCell id="qrIafX3nSjIkt2bbz3qd-9" value="Corporate Photos" style="rounded=1;whiteSpace=wrap;html=1;fillColor=#f8cecc;strokeColor=#b85450;fontColor=#1C1C1C;" parent="WIyWlLk6GJQsqaUBKTNV-1" vertex="1">
                    <mxGeometry x="610" y="110" width="120" height="60" as="geometry"/>
                </mxCell>
                <mxCell id="qrIafX3nSjIkt2bbz3qd-10" value="Street Photos" style="rounded=1;whiteSpace=wrap;html=1;fillColor=#f8cecc;strokeColor=#b85450;fontColor=#1C1C1C;labelBackgroundColor=none;labelBorderColor=none;fontSize=15;" parent="WIyWlLk6GJQsqaUBKTNV-1" vertex="1">
                    <mxGeometry x="610" y="190" width="120" height="60" as="geometry"/>
                </mxCell>
                <mxCell id="qrIafX3nSjIkt2bbz3qd-11" value="Portrait Photos" style="rounded=1;whiteSpace=wrap;html=1;fillColor=#f8cecc;strokeColor=#b85450;fontColor=#1C1C1C;labelBackgroundColor=none;labelBorderColor=none;fontSize=15;" parent="WIyWlLk6GJQsqaUBKTNV-1" vertex="1">
                    <mxGeometry x="610" y="270" width="120" height="60" as="geometry"/>
                </mxCell>
                <mxCell id="qrIafX3nSjIkt2bbz3qd-12" value="Landscape Photos" style="rounded=1;whiteSpace=wrap;html=1;fillColor=#f8cecc;strokeColor=#b85450;fontColor=#1C1C1C;labelBackgroundColor=none;labelBorderColor=none;fontSize=15;" parent="WIyWlLk6GJQsqaUBKTNV-1" vertex="1">
                    <mxGeometry x="610" y="350" width="120" height="60" as="geometry"/>
                </mxCell>
                <mxCell id="qrIafX3nSjIkt2bbz3qd-13" value="" style="endArrow=classic;html=1;exitX=1;exitY=0.5;exitDx=0;exitDy=0;entryX=0;entryY=0.5;entryDx=0;entryDy=0;" parent="WIyWlLk6GJQsqaUBKTNV-1" source="qrIafX3nSjIkt2bbz3qd-2" target="qrIafX3nSjIkt2bbz3qd-9" edge="1">
                    <mxGeometry width="50" height="50" relative="1" as="geometry">
                        <mxPoint x="570" y="270" as="sourcePoint"/>
                        <mxPoint x="620" y="220" as="targetPoint"/>
                    </mxGeometry>
                </mxCell>
                <mxCell id="qrIafX3nSjIkt2bbz3qd-14" value="" style="endArrow=classic;html=1;exitX=1;exitY=0.5;exitDx=0;exitDy=0;entryX=0;entryY=0.5;entryDx=0;entryDy=0;" parent="WIyWlLk6GJQsqaUBKTNV-1" source="qrIafX3nSjIkt2bbz3qd-2" target="qrIafX3nSjIkt2bbz3qd-10" edge="1">
                    <mxGeometry width="50" height="50" relative="1" as="geometry">
                        <mxPoint x="430" y="120" as="sourcePoint"/>
                        <mxPoint x="610" y="80" as="targetPoint"/>
                    </mxGeometry>
                </mxCell>
                <mxCell id="qrIafX3nSjIkt2bbz3qd-15" value="" style="endArrow=classic;html=1;entryX=0;entryY=0.5;entryDx=0;entryDy=0;exitX=1;exitY=0.5;exitDx=0;exitDy=0;" parent="WIyWlLk6GJQsqaUBKTNV-1" source="qrIafX3nSjIkt2bbz3qd-2" target="qrIafX3nSjIkt2bbz3qd-11" edge="1">
                    <mxGeometry width="50" height="50" relative="1" as="geometry">
                        <mxPoint x="460" y="210" as="sourcePoint"/>
                        <mxPoint x="610" y="160" as="targetPoint"/>
                    </mxGeometry>
                </mxCell>
                <mxCell id="qrIafX3nSjIkt2bbz3qd-16" value="" style="endArrow=classic;html=1;exitX=1;exitY=0.5;exitDx=0;exitDy=0;" parent="WIyWlLk6GJQsqaUBKTNV-1" source="qrIafX3nSjIkt2bbz3qd-2" target="qrIafX3nSjIkt2bbz3qd-12" edge="1">
                    <mxGeometry width="50" height="50" relative="1" as="geometry">
                        <mxPoint x="470" y="250" as="sourcePoint"/>
                        <mxPoint x="520" y="200" as="targetPoint"/>
                    </mxGeometry>
                </mxCell>
                <mxCell id="qrIafX3nSjIkt2bbz3qd-17" value="Project 1" style="rounded=1;whiteSpace=wrap;html=1;fillColor=#f8cecc;strokeColor=#b85450;fontColor=#1C1C1C;labelBackgroundColor=none;labelBorderColor=none;fontSize=15;" parent="WIyWlLk6GJQsqaUBKTNV-1" vertex="1">
                    <mxGeometry x="610" y="470" width="120" height="60" as="geometry"/>
                </mxCell>
                <mxCell id="qrIafX3nSjIkt2bbz3qd-18" value="Project 2" style="rounded=1;whiteSpace=wrap;html=1;fillColor=#f8cecc;strokeColor=#b85450;fontColor=#1C1C1C;labelBackgroundColor=none;labelBorderColor=none;fontSize=15;" parent="WIyWlLk6GJQsqaUBKTNV-1" vertex="1">
                    <mxGeometry x="610" y="550" width="120" height="60" as="geometry"/>
                </mxCell>
                <mxCell id="qrIafX3nSjIkt2bbz3qd-19" value="Other?" style="rounded=1;whiteSpace=wrap;html=1;fillColor=#f8cecc;strokeColor=#b85450;fontColor=#1C1C1C;labelBackgroundColor=none;labelBorderColor=none;fontSize=15;" parent="WIyWlLk6GJQsqaUBKTNV-1" vertex="1">
                    <mxGeometry x="610" y="710" width="120" height="60" as="geometry"/>
                </mxCell>
                <mxCell id="qrIafX3nSjIkt2bbz3qd-20" value="Project 3" style="rounded=1;whiteSpace=wrap;html=1;fillColor=#f8cecc;strokeColor=#b85450;fontColor=#1C1C1C;labelBackgroundColor=none;labelBorderColor=none;fontSize=15;" parent="WIyWlLk6GJQsqaUBKTNV-1" vertex="1">
                    <mxGeometry x="610" y="630" width="120" height="60" as="geometry"/>
                </mxCell>
                <mxCell id="qrIafX3nSjIkt2bbz3qd-21" value="" style="endArrow=classic;html=1;exitX=1;exitY=0.5;exitDx=0;exitDy=0;entryX=0;entryY=0.5;entryDx=0;entryDy=0;" parent="WIyWlLk6GJQsqaUBKTNV-1" source="qrIafX3nSjIkt2bbz3qd-4" target="qrIafX3nSjIkt2bbz3qd-17" edge="1">
                    <mxGeometry width="50" height="50" relative="1" as="geometry">
                        <mxPoint x="460" y="520" as="sourcePoint"/>
                        <mxPoint x="510" y="470" as="targetPoint"/>
                    </mxGeometry>
                </mxCell>
                <mxCell id="qrIafX3nSjIkt2bbz3qd-22" value="" style="endArrow=classic;html=1;entryX=0;entryY=0.5;entryDx=0;entryDy=0;exitX=1;exitY=0.5;exitDx=0;exitDy=0;" parent="WIyWlLk6GJQsqaUBKTNV-1" source="qrIafX3nSjIkt2bbz3qd-4" target="qrIafX3nSjIkt2bbz3qd-18" edge="1">
                    <mxGeometry width="50" height="50" relative="1" as="geometry">
                        <mxPoint x="530" y="620" as="sourcePoint"/>
                        <mxPoint x="580" y="570" as="targetPoint"/>
                    </mxGeometry>
                </mxCell>
                <mxCell id="qrIafX3nSjIkt2bbz3qd-23" value="" style="endArrow=classic;html=1;entryX=0;entryY=0.5;entryDx=0;entryDy=0;exitX=1;exitY=0.5;exitDx=0;exitDy=0;" parent="WIyWlLk6GJQsqaUBKTNV-1" source="qrIafX3nSjIkt2bbz3qd-4" target="qrIafX3nSjIkt2bbz3qd-20" edge="1">
                    <mxGeometry width="50" height="50" relative="1" as="geometry">
                        <mxPoint x="470" y="590" as="sourcePoint"/>
                        <mxPoint x="520" y="540" as="targetPoint"/>
                    </mxGeometry>
                </mxCell>
                <mxCell id="qrIafX3nSjIkt2bbz3qd-24" value="" style="endArrow=classic;html=1;exitX=1;exitY=0.5;exitDx=0;exitDy=0;entryX=0;entryY=0.5;entryDx=0;entryDy=0;" parent="WIyWlLk6GJQsqaUBKTNV-1" source="qrIafX3nSjIkt2bbz3qd-4" target="qrIafX3nSjIkt2bbz3qd-19" edge="1">
                    <mxGeometry width="50" height="50" relative="1" as="geometry">
                        <mxPoint x="470" y="670" as="sourcePoint"/>
                        <mxPoint x="520" y="620" as="targetPoint"/>
                    </mxGeometry>
                </mxCell>
                <mxCell id="qrIafX3nSjIkt2bbz3qd-25" value="Blog" style="whiteSpace=wrap;html=1;aspect=fixed;fillColor=#ffe6cc;strokeColor=#d79b00;fontColor=#1C1C1C;rounded=1;labelBackgroundColor=none;labelBorderColor=none;fontSize=15;" parent="WIyWlLk6GJQsqaUBKTNV-1" vertex="1">
                    <mxGeometry x="160" y="480" width="120" height="120" as="geometry"/>
                </mxCell>
                <mxCell id="qrIafX3nSjIkt2bbz3qd-26" value="" style="endArrow=classic;html=1;exitX=0.5;exitY=1;exitDx=0;exitDy=0;" parent="WIyWlLk6GJQsqaUBKTNV-1" source="qrIafX3nSjIkt2bbz3qd-0" target="qrIafX3nSjIkt2bbz3qd-25" edge="1">
                    <mxGeometry width="50" height="50" relative="1" as="geometry">
                        <mxPoint x="390" y="320" as="sourcePoint"/>
                        <mxPoint x="440" y="270" as="targetPoint"/>
                    </mxGeometry>
                </mxCell>
                <mxCell id="qrIafX3nSjIkt2bbz3qd-27" value="Reel" style="rounded=1;whiteSpace=wrap;html=1;fillColor=#f8cecc;strokeColor=#b85450;fontColor=#1C1C1C;labelBackgroundColor=none;labelBorderColor=none;fontSize=15;" parent="WIyWlLk6GJQsqaUBKTNV-1" vertex="1">
                    <mxGeometry x="610" y="830" width="120" height="60" as="geometry"/>
                </mxCell>
                <mxCell id="qrIafX3nSjIkt2bbz3qd-28" value="" style="endArrow=classic;html=1;exitX=1;exitY=0.5;exitDx=0;exitDy=0;entryX=0;entryY=0.5;entryDx=0;entryDy=0;" parent="WIyWlLk6GJQsqaUBKTNV-1" source="qrIafX3nSjIkt2bbz3qd-5" target="qrIafX3nSjIkt2bbz3qd-27" edge="1">
                    <mxGeometry width="50" height="50" relative="1" as="geometry">
                        <mxPoint x="450" y="800" as="sourcePoint"/>
                        <mxPoint x="500" y="750" as="targetPoint"/>
                    </mxGeometry>
                </mxCell>
                <mxCell id="qrIafX3nSjIkt2bbz3qd-29" value="Project 1" style="rounded=1;whiteSpace=wrap;html=1;fillColor=#f8cecc;strokeColor=#b85450;fontColor=#1C1C1C;labelBackgroundColor=none;labelBorderColor=none;fontSize=15;" parent="WIyWlLk6GJQsqaUBKTNV-1" vertex="1">
                    <mxGeometry x="610" y="910" width="120" height="60" as="geometry"/>
                </mxCell>
                <mxCell id="qrIafX3nSjIkt2bbz3qd-30" value="School Videos" style="rounded=1;whiteSpace=wrap;html=1;fillColor=#f8cecc;strokeColor=#b85450;fontColor=#1C1C1C;labelBackgroundColor=none;labelBorderColor=none;fontSize=15;" parent="WIyWlLk6GJQsqaUBKTNV-1" vertex="1">
                    <mxGeometry x="610" y="990" width="120" height="60" as="geometry"/>
                </mxCell>
                <mxCell id="qrIafX3nSjIkt2bbz3qd-31" value="" style="endArrow=classic;html=1;exitX=1;exitY=0.5;exitDx=0;exitDy=0;entryX=0;entryY=0.5;entryDx=0;entryDy=0;" parent="WIyWlLk6GJQsqaUBKTNV-1" source="qrIafX3nSjIkt2bbz3qd-5" target="qrIafX3nSjIkt2bbz3qd-29" edge="1">
                    <mxGeometry width="50" height="50" relative="1" as="geometry">
                        <mxPoint x="510" y="870" as="sourcePoint"/>
                        <mxPoint x="560" y="820" as="targetPoint"/>
                    </mxGeometry>
                </mxCell>
                <mxCell id="qrIafX3nSjIkt2bbz3qd-32" value="" style="endArrow=classic;html=1;exitX=1;exitY=0.5;exitDx=0;exitDy=0;entryX=0;entryY=0.5;entryDx=0;entryDy=0;" parent="WIyWlLk6GJQsqaUBKTNV-1" source="qrIafX3nSjIkt2bbz3qd-5" target="qrIafX3nSjIkt2bbz3qd-30" edge="1">
                    <mxGeometry width="50" height="50" relative="1" as="geometry">
                        <mxPoint x="480" y="980" as="sourcePoint"/>
                        <mxPoint x="530" y="930" as="targetPoint"/>
                    </mxGeometry>
                </mxCell>
                <mxCell id="qrIafX3nSjIkt2bbz3qd-33" value="About" style="rounded=1;whiteSpace=wrap;html=1;fillColor=#ffe6cc;strokeColor=#d79b00;fontColor=#1C1C1C;labelBackgroundColor=none;labelBorderColor=none;fontSize=15;" parent="WIyWlLk6GJQsqaUBKTNV-1" vertex="1">
                    <mxGeometry x="320" y="40" width="120" height="80" as="geometry"/>
                </mxCell>
                <mxCell id="qrIafX3nSjIkt2bbz3qd-34" value="" style="endArrow=classic;html=1;exitX=1;exitY=0;exitDx=0;exitDy=0;entryX=0;entryY=0.5;entryDx=0;entryDy=0;" parent="WIyWlLk6GJQsqaUBKTNV-1" source="qrIafX3nSjIkt2bbz3qd-0" target="qrIafX3nSjIkt2bbz3qd-33" edge="1">
                    <mxGeometry width="50" height="50" relative="1" as="geometry">
                        <mxPoint x="170" y="90" as="sourcePoint"/>
                        <mxPoint x="220" y="40" as="targetPoint"/>
                    </mxGeometry>
                </mxCell>
                <mxCell id="qrIafX3nSjIkt2bbz3qd-37" value="Database" style="rounded=1;whiteSpace=wrap;html=1;fillColor=#60a917;strokeColor=#2D7600;fontColor=#ffffff;labelBackgroundColor=none;labelBorderColor=none;fontSize=15;" parent="WIyWlLk6GJQsqaUBKTNV-1" vertex="1">
                    <mxGeometry x="40" y="920" width="160" height="80" as="geometry"/>
                </mxCell>
                <mxCell id="qrIafX3nSjIkt2bbz3qd-38" value="Login Page (private)" style="rounded=1;whiteSpace=wrap;html=1;fillColor=#e1d5e7;strokeColor=#9673a6;fontColor=#1C1C1C;labelBackgroundColor=none;labelBorderColor=none;fontSize=15;" parent="WIyWlLk6GJQsqaUBKTNV-1" vertex="1">
                    <mxGeometry x="40" y="680" width="120" height="80" as="geometry"/>
                </mxCell>
                <mxCell id="qrIafX3nSjIkt2bbz3qd-39" value="Upload Image" style="rounded=1;whiteSpace=wrap;html=1;fillColor=#e1d5e7;strokeColor=#9673a6;fontColor=#1C1C1C;labelBackgroundColor=none;labelBorderColor=none;fontSize=15;" parent="WIyWlLk6GJQsqaUBKTNV-1" vertex="1">
                    <mxGeometry x="200" y="680" width="120" height="60" as="geometry"/>
                </mxCell>
                <mxCell id="qrIafX3nSjIkt2bbz3qd-40" value="" style="endArrow=classic;html=1;exitX=1;exitY=0.5;exitDx=0;exitDy=0;entryX=0;entryY=0.5;entryDx=0;entryDy=0;" parent="WIyWlLk6GJQsqaUBKTNV-1" source="qrIafX3nSjIkt2bbz3qd-38" target="qrIafX3nSjIkt2bbz3qd-39" edge="1">
                    <mxGeometry width="50" height="50" relative="1" as="geometry">
                        <mxPoint x="340" y="690" as="sourcePoint"/>
                        <mxPoint x="390" y="640" as="targetPoint"/>
                    </mxGeometry>
                </mxCell>
                <mxCell id="qrIafX3nSjIkt2bbz3qd-41" value="Create Blog Post" style="rounded=1;whiteSpace=wrap;html=1;fillColor=#e1d5e7;strokeColor=#9673a6;fontColor=#1C1C1C;labelBackgroundColor=none;labelBorderColor=none;fontSize=15;" parent="WIyWlLk6GJQsqaUBKTNV-1" vertex="1">
                    <mxGeometry x="200" y="760" width="120" height="60" as="geometry"/>
                </mxCell>
                <mxCell id="qrIafX3nSjIkt2bbz3qd-42" value="" style="endArrow=classic;html=1;entryX=0;entryY=0.5;entryDx=0;entryDy=0;exitX=1;exitY=0.5;exitDx=0;exitDy=0;" parent="WIyWlLk6GJQsqaUBKTNV-1" source="qrIafX3nSjIkt2bbz3qd-38" target="qrIafX3nSjIkt2bbz3qd-41" edge="1">
                    <mxGeometry width="50" height="50" relative="1" as="geometry">
                        <mxPoint x="180" y="740" as="sourcePoint"/>
                        <mxPoint x="460" y="690" as="targetPoint"/>
                    </mxGeometry>
                </mxCell>
                <mxCell id="qrIafX3nSjIkt2bbz3qd-43" value="" style="endArrow=none;dashed=1;html=1;dashPattern=1 3;strokeWidth=2;" parent="WIyWlLk6GJQsqaUBKTNV-1" edge="1">
                    <mxGeometry width="50" height="50" relative="1" as="geometry">
                        <mxPoint y="640" as="sourcePoint"/>
                        <mxPoint x="440" y="640" as="targetPoint"/>
                    </mxGeometry>
                </mxCell>
                <mxCell id="qrIafX3nSjIkt2bbz3qd-44" value="" style="endArrow=none;dashed=1;html=1;dashPattern=1 3;strokeWidth=2;" parent="WIyWlLk6GJQsqaUBKTNV-1" edge="1">
                    <mxGeometry width="50" height="50" relative="1" as="geometry">
                        <mxPoint x="440" y="1050" as="sourcePoint"/>
                        <mxPoint x="440" y="640" as="targetPoint"/>
                    </mxGeometry>
                </mxCell>
                <mxCell id="qrIafX3nSjIkt2bbz3qd-45" value="user: only&amp;nbsp; me?" style="rounded=0;whiteSpace=wrap;html=1;" parent="WIyWlLk6GJQsqaUBKTNV-1" vertex="1">
                    <mxGeometry x="280" y="860" width="120" height="60" as="geometry"/>
                </mxCell>
                <mxCell id="qrIafX3nSjIkt2bbz3qd-46" value="Images:&lt;br&gt;-location&lt;br&gt;-date&lt;br&gt;-tags&lt;br&gt;&lt;br&gt;" style="rounded=0;whiteSpace=wrap;html=1;" parent="WIyWlLk6GJQsqaUBKTNV-1" vertex="1">
                    <mxGeometry x="280" y="940" width="120" height="110" as="geometry"/>
                </mxCell>
                <mxCell id="qrIafX3nSjIkt2bbz3qd-47" value="" style="endArrow=classic;html=1;exitX=1;exitY=0.5;exitDx=0;exitDy=0;entryX=0;entryY=0.5;entryDx=0;entryDy=0;" parent="WIyWlLk6GJQsqaUBKTNV-1" source="qrIafX3nSjIkt2bbz3qd-37" target="qrIafX3nSjIkt2bbz3qd-45" edge="1">
                    <mxGeometry width="50" height="50" relative="1" as="geometry">
                        <mxPoint x="210" y="930" as="sourcePoint"/>
                        <mxPoint x="260" y="880" as="targetPoint"/>
                    </mxGeometry>
                </mxCell>
                <mxCell id="qrIafX3nSjIkt2bbz3qd-48" value="" style="endArrow=classic;html=1;entryX=0;entryY=0.5;entryDx=0;entryDy=0;exitX=1;exitY=0.5;exitDx=0;exitDy=0;" parent="WIyWlLk6GJQsqaUBKTNV-1" source="qrIafX3nSjIkt2bbz3qd-37" target="qrIafX3nSjIkt2bbz3qd-46" edge="1">
                    <mxGeometry width="50" height="50" relative="1" as="geometry">
                        <mxPoint x="200" y="960" as="sourcePoint"/>
                        <mxPoint x="30" y="840" as="targetPoint"/>
                    </mxGeometry>
                </mxCell>
                <mxCell id="Ic0_1FOMNpRocbR3-cjS-0" value="MAIN DIAGRAM" style="text;html=1;strokeColor=none;fillColor=none;align=center;verticalAlign=middle;whiteSpace=wrap;rounded=0;labelBackgroundColor=#ffffff;fontSize=28;fontColor=#1C1C1C;labelBorderColor=#F5F5F5;" vertex="1" parent="WIyWlLk6GJQsqaUBKTNV-1">
                    <mxGeometry x="570" y="20" width="210" height="60" as="geometry"/>
                </mxCell>
            </root>
        </mxGraphModel>
    </diagram>
    <diagram id="YW4xDNe1A1FT28d1FX_S" name="Photography">
        <mxGraphModel dx="1606" dy="1150" grid="1" gridSize="10" guides="1" tooltips="1" connect="1" arrows="1" fold="1" page="1" pageScale="1" pageWidth="850" pageHeight="1100" math="0" shadow="0">
            <root>
                <mxCell id="SADXkhlfamy76IqpmrjW-0"/>
                <mxCell id="SADXkhlfamy76IqpmrjW-1" parent="SADXkhlfamy76IqpmrjW-0"/>
                <mxCell id="Lm-DXxTGF_b1RnAW0vAL-0" value="Photography Page" style="text;html=1;strokeColor=none;fillColor=none;align=center;verticalAlign=middle;whiteSpace=wrap;rounded=0;labelBackgroundColor=#ffffff;fontSize=28;fontColor=#1C1C1C;labelBorderColor=#F5F5F5;" vertex="1" parent="SADXkhlfamy76IqpmrjW-1">
                    <mxGeometry x="570" y="20" width="210" height="60" as="geometry"/>
                </mxCell>
                <mxCell id="Lm-DXxTGF_b1RnAW0vAL-1" value="" style="rounded=0;whiteSpace=wrap;html=1;labelBackgroundColor=#ffffff;fontSize=28;fontColor=#1C1C1C;fillColor=#DADFE8;strokeColor=none;" vertex="1" parent="SADXkhlfamy76IqpmrjW-1">
                    <mxGeometry x="80" y="120" width="680" height="370" as="geometry"/>
                </mxCell>
                <mxCell id="Lm-DXxTGF_b1RnAW0vAL-2" value="" style="rounded=0;whiteSpace=wrap;html=1;labelBackgroundColor=#ffffff;fontSize=28;fontColor=#1C1C1C;" vertex="1" parent="SADXkhlfamy76IqpmrjW-1">
                    <mxGeometry x="240" y="520" width="340" height="560" as="geometry"/>
                </mxCell>
                <mxCell id="Lm-DXxTGF_b1RnAW0vAL-3" value="" style="rounded=0;whiteSpace=wrap;html=1;labelBackgroundColor=#ffffff;fontSize=28;fontColor=#ffffff;fillColor=#2C3A47;strokeColor=none;" vertex="1" parent="SADXkhlfamy76IqpmrjW-1">
                    <mxGeometry x="80" y="120" width="680" height="30" as="geometry"/>
                </mxCell>
                <mxCell id="Lm-DXxTGF_b1RnAW0vAL-4" value="" style="rounded=0;whiteSpace=wrap;html=1;labelBackgroundColor=#ffffff;fontSize=28;fontColor=#ffffff;fillColor=#6a00ff;strokeColor=none;" vertex="1" parent="SADXkhlfamy76IqpmrjW-1">
                    <mxGeometry x="730" y="130" width="20" height="10" as="geometry"/>
                </mxCell>
                <mxCell id="Lm-DXxTGF_b1RnAW0vAL-5" value="" style="rounded=0;whiteSpace=wrap;html=1;labelBackgroundColor=#ffffff;fontSize=28;fontColor=#ffffff;fillColor=#6a00ff;strokeColor=none;" vertex="1" parent="SADXkhlfamy76IqpmrjW-1">
                    <mxGeometry x="90" y="130" width="120" height="10" as="geometry"/>
                </mxCell>
                <mxCell id="Lm-DXxTGF_b1RnAW0vAL-6" value="" style="rounded=0;whiteSpace=wrap;html=1;labelBackgroundColor=#ffffff;fontSize=28;fontColor=#ffffff;fillColor=#A8A8A8;strokeColor=none;" vertex="1" parent="SADXkhlfamy76IqpmrjW-1">
                    <mxGeometry x="80" y="150" width="680" height="50" as="geometry"/>
                </mxCell>
                <mxCell id="Lm-DXxTGF_b1RnAW0vAL-7" value="" style="rounded=0;whiteSpace=wrap;html=1;labelBackgroundColor=#ffffff;fontSize=28;fontColor=#1C1C1C;fillColor=#A8A8A8;strokeColor=none;shadow=1;sketch=0;" vertex="1" parent="SADXkhlfamy76IqpmrjW-1">
                    <mxGeometry x="120" y="270" width="600" height="150" as="geometry"/>
                </mxCell>
                <mxCell id="Lm-DXxTGF_b1RnAW0vAL-8" value="" style="rounded=0;whiteSpace=wrap;html=1;labelBackgroundColor=#ffffff;fontSize=28;fontColor=#1C1C1C;fillColor=#DADFE8;" vertex="1" parent="SADXkhlfamy76IqpmrjW-1">
                    <mxGeometry x="240" y="520" width="340" height="560" as="geometry"/>
                </mxCell>
                <mxCell id="Lm-DXxTGF_b1RnAW0vAL-9" value="" style="rounded=0;whiteSpace=wrap;html=1;labelBackgroundColor=#ffffff;fontSize=28;fontColor=#ffffff;strokeColor=#005700;fillColor=#2C3A47;" vertex="1" parent="SADXkhlfamy76IqpmrjW-1">
                    <mxGeometry x="240" y="520" width="340" height="30" as="geometry"/>
                </mxCell>
                <mxCell id="Lm-DXxTGF_b1RnAW0vAL-10" value="" style="rounded=0;whiteSpace=wrap;html=1;labelBackgroundColor=#ffffff;fontSize=28;fontColor=#ffffff;fillColor=#6a00ff;strokeColor=#3700CC;" vertex="1" parent="SADXkhlfamy76IqpmrjW-1">
                    <mxGeometry x="250" y="530" width="120" height="10" as="geometry"/>
                </mxCell>
                <mxCell id="Lm-DXxTGF_b1RnAW0vAL-11" value="" style="rounded=0;whiteSpace=wrap;html=1;labelBackgroundColor=#ffffff;fontSize=28;fontColor=#ffffff;strokeColor=#2D7600;fillColor=#A8A8A8;" vertex="1" parent="SADXkhlfamy76IqpmrjW-1">
                    <mxGeometry x="240" y="550" width="340" height="50" as="geometry"/>
                </mxCell>
                <mxCell id="Lm-DXxTGF_b1RnAW0vAL-12" value="" style="rounded=0;whiteSpace=wrap;html=1;labelBackgroundColor=#ffffff;fontSize=28;fontColor=#1C1C1C;fillColor=#A8A8A8;strokeColor=none;" vertex="1" parent="SADXkhlfamy76IqpmrjW-1">
                    <mxGeometry x="285" y="670" width="250" height="150" as="geometry"/>
                </mxCell>
                <mxCell id="Lm-DXxTGF_b1RnAW0vAL-13" value="" style="rounded=0;whiteSpace=wrap;html=1;labelBackgroundColor=#ffffff;fontSize=28;fontColor=#ffffff;fillColor=#6a00ff;strokeColor=#3700CC;" vertex="1" parent="SADXkhlfamy76IqpmrjW-1">
                    <mxGeometry x="550" y="530" width="20" height="10" as="geometry"/>
                </mxCell>
                <mxCell id="Lm-DXxTGF_b1RnAW0vAL-14" value="" style="rounded=0;whiteSpace=wrap;html=1;labelBackgroundColor=#ffffff;fontSize=28;fontColor=#1C1C1C;fillColor=#A8A8A8;strokeColor=none;" vertex="1" parent="SADXkhlfamy76IqpmrjW-1">
                    <mxGeometry x="285" y="850" width="250" height="150" as="geometry"/>
                </mxCell>
                <mxCell id="Lm-DXxTGF_b1RnAW0vAL-15" value="" style="rounded=0;whiteSpace=wrap;html=1;labelBackgroundColor=#ffffff;fontSize=28;fontColor=#1C1C1C;fillColor=#A8A8A8;strokeWidth=1;strokeColor=none;shadow=1;" vertex="1" parent="SADXkhlfamy76IqpmrjW-1">
                    <mxGeometry x="120" y="450" width="600" height="40" as="geometry"/>
                </mxCell>
                <mxCell id="Lm-DXxTGF_b1RnAW0vAL-16" value="" style="rounded=0;whiteSpace=wrap;html=1;labelBackgroundColor=#ffffff;strokeWidth=1;fontSize=28;fontColor=#1C1C1C;strokeColor=none;fillColor=#2C3A47;" vertex="1" parent="SADXkhlfamy76IqpmrjW-1">
                    <mxGeometry x="750" y="210" width="10" height="280" as="geometry"/>
                </mxCell>
                <mxCell id="Lm-DXxTGF_b1RnAW0vAL-17" value="" style="rounded=0;whiteSpace=wrap;html=1;labelBackgroundColor=#ffffff;fontSize=28;fontColor=#1C1C1C;fillColor=#A8A8A8;strokeColor=none;" vertex="1" parent="SADXkhlfamy76IqpmrjW-1">
                    <mxGeometry x="285" y="1030" width="250" height="50" as="geometry"/>
                </mxCell>
                <mxCell id="Lm-DXxTGF_b1RnAW0vAL-18" value="Corporate Photography" style="text;html=1;align=center;verticalAlign=middle;whiteSpace=wrap;rounded=0;shadow=1;labelBackgroundColor=none;sketch=0;fontSize=16;fontColor=#1C1C1C;" vertex="1" parent="SADXkhlfamy76IqpmrjW-1">
                    <mxGeometry x="130" y="280" width="170" height="20" as="geometry"/>
                </mxCell>
                <mxCell id="Lm-DXxTGF_b1RnAW0vAL-19" value="Landscape Photography" style="text;html=1;align=center;verticalAlign=middle;whiteSpace=wrap;rounded=0;shadow=1;labelBackgroundColor=none;sketch=0;fontSize=16;fontColor=#1C1C1C;" vertex="1" parent="SADXkhlfamy76IqpmrjW-1">
                    <mxGeometry x="130" y="460" width="180" height="20" as="geometry"/>
                </mxCell>
                <mxCell id="Lm-DXxTGF_b1RnAW0vAL-20" value="Corporate Photography" style="text;html=1;align=center;verticalAlign=middle;whiteSpace=wrap;rounded=0;shadow=1;labelBackgroundColor=none;sketch=0;fontSize=16;fontColor=#1C1C1C;" vertex="1" parent="SADXkhlfamy76IqpmrjW-1">
                    <mxGeometry x="290" y="680" width="170" height="20" as="geometry"/>
                </mxCell>
                <mxCell id="Lm-DXxTGF_b1RnAW0vAL-21" value="Landscape Photography" style="text;html=1;align=center;verticalAlign=middle;whiteSpace=wrap;rounded=0;shadow=1;labelBackgroundColor=none;sketch=0;fontSize=16;fontColor=#1C1C1C;" vertex="1" parent="SADXkhlfamy76IqpmrjW-1">
                    <mxGeometry x="290" y="860" width="180" height="20" as="geometry"/>
                </mxCell>
                <mxCell id="Lm-DXxTGF_b1RnAW0vAL-22" value="Portrait Photography" style="text;html=1;align=center;verticalAlign=middle;whiteSpace=wrap;rounded=0;shadow=1;labelBackgroundColor=none;sketch=0;fontSize=16;fontColor=#1C1C1C;" vertex="1" parent="SADXkhlfamy76IqpmrjW-1">
                    <mxGeometry x="290" y="1040" width="150" height="20" as="geometry"/>
                </mxCell>
            </root>
        </mxGraphModel>
    </diagram>
    <diagram id="gJkqolSF_xWFn63pax1x" name="Coding">
        <mxGraphModel dx="1606" dy="1150" grid="1" gridSize="10" guides="1" tooltips="1" connect="1" arrows="1" fold="1" page="1" pageScale="1" pageWidth="850" pageHeight="1100" math="0" shadow="0">
            <root>
                <mxCell id="DbSNrPcM2cp-ZZ_fzOlI-0"/>
                <mxCell id="DbSNrPcM2cp-ZZ_fzOlI-1" parent="DbSNrPcM2cp-ZZ_fzOlI-0"/>
                <mxCell id="DbSNrPcM2cp-ZZ_fzOlI-2" value="Coding Page" style="text;html=1;strokeColor=none;fillColor=none;align=center;verticalAlign=middle;whiteSpace=wrap;rounded=0;labelBackgroundColor=#ffffff;fontSize=28;fontColor=#1C1C1C;labelBorderColor=#F5F5F5;" vertex="1" parent="DbSNrPcM2cp-ZZ_fzOlI-1">
                    <mxGeometry x="570" y="20" width="210" height="60" as="geometry"/>
                </mxCell>
                <mxCell id="DbSNrPcM2cp-ZZ_fzOlI-3" value="" style="rounded=0;whiteSpace=wrap;html=1;labelBackgroundColor=#ffffff;fontSize=28;fontColor=#1C1C1C;fillColor=#DADFE8;strokeColor=none;" vertex="1" parent="DbSNrPcM2cp-ZZ_fzOlI-1">
                    <mxGeometry x="80" y="120" width="680" height="370" as="geometry"/>
                </mxCell>
                <mxCell id="DbSNrPcM2cp-ZZ_fzOlI-4" value="" style="rounded=0;whiteSpace=wrap;html=1;labelBackgroundColor=#ffffff;fontSize=28;fontColor=#1C1C1C;" vertex="1" parent="DbSNrPcM2cp-ZZ_fzOlI-1">
                    <mxGeometry x="240" y="520" width="340" height="560" as="geometry"/>
                </mxCell>
                <mxCell id="DbSNrPcM2cp-ZZ_fzOlI-5" value="" style="rounded=0;whiteSpace=wrap;html=1;labelBackgroundColor=#ffffff;fontSize=28;fontColor=#ffffff;fillColor=#2C3A47;strokeColor=none;" vertex="1" parent="DbSNrPcM2cp-ZZ_fzOlI-1">
                    <mxGeometry x="80" y="120" width="680" height="30" as="geometry"/>
                </mxCell>
                <mxCell id="DbSNrPcM2cp-ZZ_fzOlI-6" value="" style="rounded=0;whiteSpace=wrap;html=1;labelBackgroundColor=#ffffff;fontSize=28;fontColor=#ffffff;fillColor=#6a00ff;strokeColor=none;" vertex="1" parent="DbSNrPcM2cp-ZZ_fzOlI-1">
                    <mxGeometry x="730" y="130" width="20" height="10" as="geometry"/>
                </mxCell>
                <mxCell id="DbSNrPcM2cp-ZZ_fzOlI-7" value="" style="rounded=0;whiteSpace=wrap;html=1;labelBackgroundColor=#ffffff;fontSize=28;fontColor=#ffffff;fillColor=#6a00ff;strokeColor=none;" vertex="1" parent="DbSNrPcM2cp-ZZ_fzOlI-1">
                    <mxGeometry x="90" y="130" width="120" height="10" as="geometry"/>
                </mxCell>
                <mxCell id="DbSNrPcM2cp-ZZ_fzOlI-8" value="" style="rounded=0;whiteSpace=wrap;html=1;labelBackgroundColor=#ffffff;fontSize=28;fontColor=#ffffff;fillColor=#A8A8A8;strokeColor=none;" vertex="1" parent="DbSNrPcM2cp-ZZ_fzOlI-1">
                    <mxGeometry x="80" y="150" width="680" height="50" as="geometry"/>
                </mxCell>
                <mxCell id="DbSNrPcM2cp-ZZ_fzOlI-9" value="" style="rounded=0;whiteSpace=wrap;html=1;labelBackgroundColor=#ffffff;fontSize=28;fontColor=#1C1C1C;fillColor=#A8A8A8;strokeColor=none;shadow=1;sketch=0;" vertex="1" parent="DbSNrPcM2cp-ZZ_fzOlI-1">
                    <mxGeometry x="120" y="270" width="600" height="150" as="geometry"/>
                </mxCell>
                <mxCell id="DbSNrPcM2cp-ZZ_fzOlI-10" value="" style="rounded=0;whiteSpace=wrap;html=1;labelBackgroundColor=#ffffff;fontSize=28;fontColor=#1C1C1C;fillColor=#DADFE8;" vertex="1" parent="DbSNrPcM2cp-ZZ_fzOlI-1">
                    <mxGeometry x="240" y="520" width="340" height="560" as="geometry"/>
                </mxCell>
                <mxCell id="DbSNrPcM2cp-ZZ_fzOlI-11" value="" style="rounded=0;whiteSpace=wrap;html=1;labelBackgroundColor=#ffffff;fontSize=28;fontColor=#ffffff;strokeColor=#005700;fillColor=#2C3A47;" vertex="1" parent="DbSNrPcM2cp-ZZ_fzOlI-1">
                    <mxGeometry x="240" y="520" width="340" height="30" as="geometry"/>
                </mxCell>
                <mxCell id="DbSNrPcM2cp-ZZ_fzOlI-12" value="" style="rounded=0;whiteSpace=wrap;html=1;labelBackgroundColor=#ffffff;fontSize=28;fontColor=#ffffff;fillColor=#6a00ff;strokeColor=#3700CC;" vertex="1" parent="DbSNrPcM2cp-ZZ_fzOlI-1">
                    <mxGeometry x="250" y="530" width="120" height="10" as="geometry"/>
                </mxCell>
                <mxCell id="DbSNrPcM2cp-ZZ_fzOlI-13" value="" style="rounded=0;whiteSpace=wrap;html=1;labelBackgroundColor=#ffffff;fontSize=28;fontColor=#ffffff;strokeColor=#2D7600;fillColor=#A8A8A8;" vertex="1" parent="DbSNrPcM2cp-ZZ_fzOlI-1">
                    <mxGeometry x="240" y="550" width="340" height="50" as="geometry"/>
                </mxCell>
                <mxCell id="DbSNrPcM2cp-ZZ_fzOlI-14" value="" style="rounded=0;whiteSpace=wrap;html=1;labelBackgroundColor=#ffffff;fontSize=28;fontColor=#1C1C1C;fillColor=#A8A8A8;strokeColor=none;" vertex="1" parent="DbSNrPcM2cp-ZZ_fzOlI-1">
                    <mxGeometry x="285" y="670" width="250" height="150" as="geometry"/>
                </mxCell>
                <mxCell id="DbSNrPcM2cp-ZZ_fzOlI-15" value="" style="rounded=0;whiteSpace=wrap;html=1;labelBackgroundColor=#ffffff;fontSize=28;fontColor=#ffffff;fillColor=#6a00ff;strokeColor=#3700CC;" vertex="1" parent="DbSNrPcM2cp-ZZ_fzOlI-1">
                    <mxGeometry x="550" y="530" width="20" height="10" as="geometry"/>
                </mxCell>
                <mxCell id="DbSNrPcM2cp-ZZ_fzOlI-16" value="" style="rounded=0;whiteSpace=wrap;html=1;labelBackgroundColor=#ffffff;fontSize=28;fontColor=#1C1C1C;fillColor=#A8A8A8;strokeColor=none;" vertex="1" parent="DbSNrPcM2cp-ZZ_fzOlI-1">
                    <mxGeometry x="285" y="850" width="250" height="150" as="geometry"/>
                </mxCell>
                <mxCell id="DbSNrPcM2cp-ZZ_fzOlI-17" value="" style="rounded=0;whiteSpace=wrap;html=1;labelBackgroundColor=#ffffff;fontSize=28;fontColor=#1C1C1C;fillColor=#A8A8A8;strokeWidth=1;strokeColor=none;shadow=1;" vertex="1" parent="DbSNrPcM2cp-ZZ_fzOlI-1">
                    <mxGeometry x="120" y="450" width="600" height="40" as="geometry"/>
                </mxCell>
                <mxCell id="DbSNrPcM2cp-ZZ_fzOlI-18" value="" style="rounded=0;whiteSpace=wrap;html=1;labelBackgroundColor=#ffffff;strokeWidth=1;fontSize=28;fontColor=#1C1C1C;strokeColor=none;fillColor=#2C3A47;" vertex="1" parent="DbSNrPcM2cp-ZZ_fzOlI-1">
                    <mxGeometry x="750" y="210" width="10" height="280" as="geometry"/>
                </mxCell>
                <mxCell id="DbSNrPcM2cp-ZZ_fzOlI-19" value="" style="rounded=0;whiteSpace=wrap;html=1;labelBackgroundColor=#ffffff;fontSize=28;fontColor=#1C1C1C;fillColor=#A8A8A8;strokeColor=none;" vertex="1" parent="DbSNrPcM2cp-ZZ_fzOlI-1">
                    <mxGeometry x="285" y="1030" width="250" height="50" as="geometry"/>
                </mxCell>
                <mxCell id="DbSNrPcM2cp-ZZ_fzOlI-20" value="Project 1" style="text;html=1;align=center;verticalAlign=middle;whiteSpace=wrap;rounded=0;shadow=1;labelBackgroundColor=none;sketch=0;fontSize=16;fontColor=#1C1C1C;" vertex="1" parent="DbSNrPcM2cp-ZZ_fzOlI-1">
                    <mxGeometry x="130" y="280" width="70" height="20" as="geometry"/>
                </mxCell>
                <mxCell id="DbSNrPcM2cp-ZZ_fzOlI-21" value="Project 2" style="text;html=1;align=center;verticalAlign=middle;whiteSpace=wrap;rounded=0;shadow=1;labelBackgroundColor=none;sketch=0;fontSize=16;fontColor=#1C1C1C;" vertex="1" parent="DbSNrPcM2cp-ZZ_fzOlI-1">
                    <mxGeometry x="130" y="460" width="70" height="20" as="geometry"/>
                </mxCell>
                <mxCell id="DbSNrPcM2cp-ZZ_fzOlI-22" value="Project 1" style="text;html=1;align=center;verticalAlign=middle;whiteSpace=wrap;rounded=0;shadow=1;labelBackgroundColor=none;sketch=0;fontSize=16;fontColor=#1C1C1C;" vertex="1" parent="DbSNrPcM2cp-ZZ_fzOlI-1">
                    <mxGeometry x="290" y="680" width="70" height="20" as="geometry"/>
                </mxCell>
                <mxCell id="DbSNrPcM2cp-ZZ_fzOlI-23" value="Project 2" style="text;html=1;align=center;verticalAlign=middle;whiteSpace=wrap;rounded=0;shadow=1;labelBackgroundColor=none;sketch=0;fontSize=16;fontColor=#1C1C1C;" vertex="1" parent="DbSNrPcM2cp-ZZ_fzOlI-1">
                    <mxGeometry x="290" y="860" width="80" height="20" as="geometry"/>
                </mxCell>
                <mxCell id="DbSNrPcM2cp-ZZ_fzOlI-24" value="Project 3" style="text;html=1;align=center;verticalAlign=middle;whiteSpace=wrap;rounded=0;shadow=1;labelBackgroundColor=none;sketch=0;fontSize=16;fontColor=#1C1C1C;" vertex="1" parent="DbSNrPcM2cp-ZZ_fzOlI-1">
                    <mxGeometry x="290" y="1040" width="70" height="20" as="geometry"/>
                </mxCell>
            </root>
        </mxGraphModel>
    </diagram>
    <diagram id="vn4xLx_KU44fWFYUF0iF" name="Video">
        <mxGraphModel dx="1606" dy="1150" grid="1" gridSize="10" guides="1" tooltips="1" connect="1" arrows="1" fold="1" page="1" pageScale="1" pageWidth="850" pageHeight="1100" math="0" shadow="0">
            <root>
                <mxCell id="xvSmo5bq1yt3vWzn_I2i-0"/>
                <mxCell id="xvSmo5bq1yt3vWzn_I2i-1" parent="xvSmo5bq1yt3vWzn_I2i-0"/>
                <mxCell id="wRFAP0FZHRLJeiZ3ncWq-0" value="Video Page" style="text;html=1;strokeColor=none;fillColor=none;align=center;verticalAlign=middle;whiteSpace=wrap;rounded=0;labelBackgroundColor=#ffffff;fontSize=28;fontColor=#1C1C1C;labelBorderColor=#F5F5F5;" vertex="1" parent="xvSmo5bq1yt3vWzn_I2i-1">
                    <mxGeometry x="570" y="20" width="210" height="60" as="geometry"/>
                </mxCell>
                <mxCell id="wRFAP0FZHRLJeiZ3ncWq-1" value="" style="rounded=0;whiteSpace=wrap;html=1;labelBackgroundColor=#ffffff;fontSize=28;fontColor=#1C1C1C;fillColor=#DADFE8;strokeColor=none;" vertex="1" parent="xvSmo5bq1yt3vWzn_I2i-1">
                    <mxGeometry x="80" y="120" width="680" height="370" as="geometry"/>
                </mxCell>
                <mxCell id="wRFAP0FZHRLJeiZ3ncWq-2" value="" style="rounded=0;whiteSpace=wrap;html=1;labelBackgroundColor=#ffffff;fontSize=28;fontColor=#1C1C1C;" vertex="1" parent="xvSmo5bq1yt3vWzn_I2i-1">
                    <mxGeometry x="240" y="520" width="340" height="560" as="geometry"/>
                </mxCell>
                <mxCell id="wRFAP0FZHRLJeiZ3ncWq-3" value="" style="rounded=0;whiteSpace=wrap;html=1;labelBackgroundColor=#ffffff;fontSize=28;fontColor=#ffffff;fillColor=#2C3A47;strokeColor=none;" vertex="1" parent="xvSmo5bq1yt3vWzn_I2i-1">
                    <mxGeometry x="80" y="120" width="680" height="30" as="geometry"/>
                </mxCell>
                <mxCell id="wRFAP0FZHRLJeiZ3ncWq-4" value="" style="rounded=0;whiteSpace=wrap;html=1;labelBackgroundColor=#ffffff;fontSize=28;fontColor=#ffffff;fillColor=#6a00ff;strokeColor=none;" vertex="1" parent="xvSmo5bq1yt3vWzn_I2i-1">
                    <mxGeometry x="700" y="130" width="20" height="10" as="geometry"/>
                </mxCell>
                <mxCell id="wRFAP0FZHRLJeiZ3ncWq-5" value="" style="rounded=0;whiteSpace=wrap;html=1;labelBackgroundColor=#ffffff;fontSize=28;fontColor=#ffffff;fillColor=#6a00ff;strokeColor=none;" vertex="1" parent="xvSmo5bq1yt3vWzn_I2i-1">
                    <mxGeometry x="120" y="130" width="120" height="10" as="geometry"/>
                </mxCell>
                <mxCell id="wRFAP0FZHRLJeiZ3ncWq-6" value="" style="rounded=0;whiteSpace=wrap;html=1;labelBackgroundColor=#ffffff;fontSize=28;fontColor=#ffffff;fillColor=#A8A8A8;strokeColor=none;" vertex="1" parent="xvSmo5bq1yt3vWzn_I2i-1">
                    <mxGeometry x="80" y="150" width="680" height="50" as="geometry"/>
                </mxCell>
                <mxCell id="wRFAP0FZHRLJeiZ3ncWq-7" value="" style="rounded=0;whiteSpace=wrap;html=1;labelBackgroundColor=#ffffff;fontSize=28;fontColor=#1C1C1C;fillColor=#A8A8A8;strokeColor=none;shadow=1;sketch=0;" vertex="1" parent="xvSmo5bq1yt3vWzn_I2i-1">
                    <mxGeometry x="120" y="270" width="600" height="150" as="geometry"/>
                </mxCell>
                <mxCell id="wRFAP0FZHRLJeiZ3ncWq-8" value="" style="rounded=0;whiteSpace=wrap;html=1;labelBackgroundColor=#ffffff;fontSize=28;fontColor=#1C1C1C;fillColor=#DADFE8;" vertex="1" parent="xvSmo5bq1yt3vWzn_I2i-1">
                    <mxGeometry x="240" y="520" width="340" height="560" as="geometry"/>
                </mxCell>
                <mxCell id="wRFAP0FZHRLJeiZ3ncWq-9" value="" style="rounded=0;whiteSpace=wrap;html=1;labelBackgroundColor=#ffffff;fontSize=28;fontColor=#ffffff;strokeColor=#005700;fillColor=#2C3A47;" vertex="1" parent="xvSmo5bq1yt3vWzn_I2i-1">
                    <mxGeometry x="240" y="520" width="340" height="30" as="geometry"/>
                </mxCell>
                <mxCell id="wRFAP0FZHRLJeiZ3ncWq-10" value="" style="rounded=0;whiteSpace=wrap;html=1;labelBackgroundColor=#ffffff;fontSize=28;fontColor=#ffffff;fillColor=#6a00ff;strokeColor=#3700CC;" vertex="1" parent="xvSmo5bq1yt3vWzn_I2i-1">
                    <mxGeometry x="285" y="530" width="120" height="10" as="geometry"/>
                </mxCell>
                <mxCell id="wRFAP0FZHRLJeiZ3ncWq-11" value="" style="rounded=0;whiteSpace=wrap;html=1;labelBackgroundColor=#ffffff;fontSize=28;fontColor=#ffffff;strokeColor=#2D7600;fillColor=#A8A8A8;" vertex="1" parent="xvSmo5bq1yt3vWzn_I2i-1">
                    <mxGeometry x="240" y="550" width="340" height="50" as="geometry"/>
                </mxCell>
                <mxCell id="wRFAP0FZHRLJeiZ3ncWq-12" value="" style="rounded=0;whiteSpace=wrap;html=1;labelBackgroundColor=#ffffff;fontSize=28;fontColor=#1C1C1C;fillColor=#A8A8A8;strokeColor=none;" vertex="1" parent="xvSmo5bq1yt3vWzn_I2i-1">
                    <mxGeometry x="285" y="670" width="250" height="150" as="geometry"/>
                </mxCell>
                <mxCell id="wRFAP0FZHRLJeiZ3ncWq-13" value="" style="rounded=0;whiteSpace=wrap;html=1;labelBackgroundColor=#ffffff;fontSize=28;fontColor=#ffffff;fillColor=#6a00ff;strokeColor=#3700CC;" vertex="1" parent="xvSmo5bq1yt3vWzn_I2i-1">
                    <mxGeometry x="515" y="530" width="20" height="10" as="geometry"/>
                </mxCell>
                <mxCell id="wRFAP0FZHRLJeiZ3ncWq-14" value="" style="rounded=0;whiteSpace=wrap;html=1;labelBackgroundColor=#ffffff;fontSize=28;fontColor=#1C1C1C;fillColor=#A8A8A8;strokeColor=none;" vertex="1" parent="xvSmo5bq1yt3vWzn_I2i-1">
                    <mxGeometry x="285" y="850" width="250" height="150" as="geometry"/>
                </mxCell>
                <mxCell id="wRFAP0FZHRLJeiZ3ncWq-15" value="" style="rounded=0;whiteSpace=wrap;html=1;labelBackgroundColor=#ffffff;fontSize=28;fontColor=#1C1C1C;fillColor=#A8A8A8;strokeWidth=1;strokeColor=none;shadow=1;" vertex="1" parent="xvSmo5bq1yt3vWzn_I2i-1">
                    <mxGeometry x="120" y="450" width="600" height="40" as="geometry"/>
                </mxCell>
                <mxCell id="wRFAP0FZHRLJeiZ3ncWq-16" value="" style="rounded=0;whiteSpace=wrap;html=1;labelBackgroundColor=#ffffff;strokeWidth=1;fontSize=28;fontColor=#1C1C1C;strokeColor=none;fillColor=#2C3A47;" vertex="1" parent="xvSmo5bq1yt3vWzn_I2i-1">
                    <mxGeometry x="750" y="210" width="10" height="280" as="geometry"/>
                </mxCell>
                <mxCell id="wRFAP0FZHRLJeiZ3ncWq-17" value="" style="rounded=0;whiteSpace=wrap;html=1;labelBackgroundColor=#ffffff;fontSize=28;fontColor=#1C1C1C;fillColor=#A8A8A8;strokeColor=none;" vertex="1" parent="xvSmo5bq1yt3vWzn_I2i-1">
                    <mxGeometry x="285" y="1030" width="250" height="50" as="geometry"/>
                </mxCell>
                <mxCell id="wRFAP0FZHRLJeiZ3ncWq-18" value="Video Editing Reel" style="text;html=1;align=center;verticalAlign=middle;whiteSpace=wrap;rounded=0;shadow=1;labelBackgroundColor=none;sketch=0;fontSize=16;fontColor=#1C1C1C;" vertex="1" parent="xvSmo5bq1yt3vWzn_I2i-1">
                    <mxGeometry x="130" y="280" width="140" height="20" as="geometry"/>
                </mxCell>
                <mxCell id="wRFAP0FZHRLJeiZ3ncWq-19" value="Second Video" style="text;html=1;align=center;verticalAlign=middle;whiteSpace=wrap;rounded=0;shadow=1;labelBackgroundColor=none;sketch=0;fontSize=16;fontColor=#1C1C1C;" vertex="1" parent="xvSmo5bq1yt3vWzn_I2i-1">
                    <mxGeometry x="130" y="460" width="110" height="20" as="geometry"/>
                </mxCell>
                <mxCell id="wRFAP0FZHRLJeiZ3ncWq-21" value="Second Video" style="text;html=1;align=center;verticalAlign=middle;whiteSpace=wrap;rounded=0;shadow=1;labelBackgroundColor=none;sketch=0;fontSize=16;fontColor=#1C1C1C;" vertex="1" parent="xvSmo5bq1yt3vWzn_I2i-1">
                    <mxGeometry x="290" y="860" width="110" height="20" as="geometry"/>
                </mxCell>
                <mxCell id="wRFAP0FZHRLJeiZ3ncWq-22" value="Third Video" style="text;html=1;align=center;verticalAlign=middle;whiteSpace=wrap;rounded=0;shadow=1;labelBackgroundColor=none;sketch=0;fontSize=16;fontColor=#1C1C1C;" vertex="1" parent="xvSmo5bq1yt3vWzn_I2i-1">
                    <mxGeometry x="290" y="1040" width="90" height="20" as="geometry"/>
                </mxCell>
                <mxCell id="wRFAP0FZHRLJeiZ3ncWq-23" value="Video Editing Reel" style="text;html=1;align=center;verticalAlign=middle;whiteSpace=wrap;rounded=0;shadow=1;labelBackgroundColor=none;sketch=0;fontSize=16;fontColor=#1C1C1C;" vertex="1" parent="xvSmo5bq1yt3vWzn_I2i-1">
                    <mxGeometry x="290" y="680" width="140" height="20" as="geometry"/>
                </mxCell>
            </root>
        </mxGraphModel>
    </diagram>
</mxfile>